<svg width="616" height="495" viewBox="0 0 616 495" fill="none" xmlns="http://www.w3.org/2000/svg">
<ellipse rx="238.281" ry="219" transform="matrix(-1 0 0 1 293.033 247.999)" fill="#FFE5D2"/>
<path fill-rule="evenodd" clip-rule="evenodd" d="M490.911 343.693C491.014 343.634 491.653 344.464 492.598 346.098C493.547 347.726 494.728 350.2 495.826 353.391C498.075 359.752 499.487 369.142 498.65 379.382C497.82 389.621 495.413 398.609 493.556 405.006C491.655 411.407 490.257 415.292 490.016 415.226C489.75 415.154 490.694 411.134 492.253 404.671C493.772 398.209 495.939 389.269 496.751 379.24C497.568 369.214 496.406 360.088 494.54 353.779C492.727 347.439 490.612 343.846 490.911 343.693Z" fill="white"/>
<path fill-rule="evenodd" clip-rule="evenodd" d="M497.328 292.449C497.447 292.397 498.22 293.789 499.511 296.354C500.799 298.92 502.611 302.659 504.753 307.325C509.004 316.656 514.725 329.719 518.875 344.883C520.915 352.469 522.305 359.844 523.009 366.616C523.718 373.387 523.79 379.539 523.436 384.674C523.092 389.811 522.432 393.933 521.797 396.736C521.17 399.544 520.672 401.057 520.56 401.032C520.208 400.965 521.761 394.783 522.091 384.612C522.502 374.462 521.146 360.36 517.034 345.366C512.932 330.366 507.445 317.297 503.517 307.85C501.54 303.123 499.94 299.296 498.833 296.652C497.752 293.996 497.207 292.502 497.328 292.449Z" fill="white"/>
<path fill-rule="evenodd" clip-rule="evenodd" d="M259.858 352.594C260.079 352.827 257.92 354.852 255.117 358.612C254.422 359.556 253.666 360.589 252.959 361.769C252.186 362.905 251.514 364.209 250.766 365.556C249.374 368.3 248.053 371.419 247.035 374.815C246.06 378.223 245.492 381.554 245.186 384.607C245.093 386.137 244.957 387.594 244.996 388.959C244.957 390.328 245.038 391.6 245.115 392.763C245.455 397.411 246.189 400.255 245.876 400.338C245.686 400.402 244.478 397.655 243.776 392.898C243.609 391.71 243.448 390.405 243.417 388.992C243.309 387.58 243.387 386.07 243.435 384.48C243.654 381.31 244.192 377.834 245.205 374.297C246.261 370.77 247.685 367.546 249.216 364.748C250.034 363.374 250.784 362.055 251.64 360.917C252.429 359.736 253.273 358.714 254.057 357.795C257.224 354.134 259.734 352.442 259.858 352.594Z" fill="white"/>
<path fill-rule="evenodd" clip-rule="evenodd" d="M264.927 369C265.086 369.251 263.883 370.156 262.311 371.886C261.516 372.741 260.677 373.849 259.853 375.132C259.063 376.438 258.306 377.935 257.711 379.587C257.143 381.246 256.801 382.884 256.605 384.393C256.449 385.903 256.414 387.282 256.506 388.438C256.658 390.752 257.039 392.195 256.755 392.296C256.551 392.381 255.695 391.06 255.171 388.614C254.898 387.395 254.786 385.901 254.856 384.247C254.967 382.598 255.289 380.79 255.911 378.976C256.558 377.171 257.44 375.553 258.386 374.187C259.366 372.84 260.392 371.734 261.37 370.939C263.316 369.329 264.818 368.808 264.927 369Z" fill="white"/>
<path fill-rule="evenodd" clip-rule="evenodd" d="M194.572 216.107C194.671 216.022 195.523 216.847 196.985 218.419C197.728 219.197 198.605 220.177 199.534 221.386C200.472 222.583 201.6 223.913 202.659 225.512C203.205 226.301 203.779 227.127 204.375 227.988C204.965 228.854 205.5 229.803 206.096 230.761C207.316 232.663 208.409 234.81 209.598 237.051C211.843 241.595 213.99 246.753 215.7 252.343C217.355 257.951 218.406 263.429 219.034 268.442C219.273 270.958 219.542 273.346 219.57 275.593C219.599 276.716 219.674 277.798 219.657 278.841C219.634 279.882 219.609 280.881 219.587 281.835C219.581 283.745 219.369 285.462 219.244 286.971C219.132 288.481 218.938 289.771 218.744 290.82C218.386 292.923 218.127 294.07 217.997 294.052C217.662 294.009 218.294 289.35 218.241 281.821C218.223 280.88 218.206 279.896 218.188 278.869C218.166 277.843 218.055 276.777 217.993 275.675C217.899 273.466 217.574 271.123 217.293 268.656C216.579 263.741 215.498 258.379 213.874 252.875C212.194 247.388 210.139 242.308 208.02 237.8C206.893 235.579 205.869 233.44 204.728 231.535C204.17 230.575 203.674 229.623 203.126 228.749C202.573 227.879 202.044 227.042 201.538 226.244C197.42 219.895 194.313 216.324 194.572 216.107Z" fill="white"/>
<path fill-rule="evenodd" clip-rule="evenodd" d="M216.134 224.878C216.297 224.737 218.484 226.748 221.265 230.624C222.665 232.554 224.14 234.986 225.575 237.791C226.97 240.614 228.3 243.82 229.362 247.295C230.391 250.779 231.046 254.183 231.436 257.298C231.78 260.42 231.887 263.249 231.777 265.617C231.585 270.356 230.86 273.214 230.646 273.181C230.34 273.144 230.585 270.251 230.43 265.616C230.368 263.299 230.125 260.548 229.697 257.523C229.222 254.503 228.534 251.211 227.536 247.826C226.504 244.451 225.261 241.32 223.991 238.532C222.679 235.762 221.362 233.324 220.134 231.344C217.702 227.37 215.899 225.073 216.134 224.878Z" fill="white"/>
<path fill-rule="evenodd" clip-rule="evenodd" d="M140.631 378.076L138.974 374.748L92.8284 409.414L112.96 441.479L158.895 403.4L140.631 378.076Z" fill="#FF7B5B"/>
<path fill-rule="evenodd" clip-rule="evenodd" d="M94.7621 410.155L112.448 440.226L113.579 439.73L97.8291 411.613L94.7621 410.155Z" fill="#D7D4D4"/>
<path fill-rule="evenodd" clip-rule="evenodd" d="M139.72 377.417L94.7621 410.154C94.7621 410.154 94.9506 410.857 96.0662 411.291C97.1833 411.724 97.8291 411.614 97.8291 411.614L145.094 379.808C145.094 379.808 142.37 379.186 141.381 378.461C140.392 377.733 139.72 377.417 139.72 377.417Z" fill="#F5F3F3"/>
<path fill-rule="evenodd" clip-rule="evenodd" d="M146.25 378.526L96.985 410.879L112.985 440.693L115.563 444.822L164.83 408.972C164.83 408.972 159.641 401.358 156.525 396.76C153.41 392.163 147.294 381.32 146.961 380.625C146.627 379.93 146.25 378.526 146.25 378.526Z" fill="#FF7B5B"/>
<path fill-rule="evenodd" clip-rule="evenodd" d="M552.525 155.165L553.917 152.371L592.667 181.481L575.762 208.408L537.189 176.431L552.525 155.165Z" fill="#775298"/>
<path fill-rule="evenodd" clip-rule="evenodd" d="M591.043 182.103L576.193 207.354L575.243 206.938L588.468 183.328L591.043 182.103Z" fill="#D7D4D4"/>
<path fill-rule="evenodd" clip-rule="evenodd" d="M553.291 154.611L591.044 182.102C591.044 182.102 590.884 182.692 589.949 183.056C589.011 183.42 588.467 183.327 588.467 183.327L548.777 156.62C548.777 156.62 551.066 156.098 551.896 155.487C552.726 154.877 553.291 154.611 553.291 154.611Z" fill="#F5F3F3"/>
<path fill-rule="evenodd" clip-rule="evenodd" d="M547.807 155.543L589.177 182.71L575.742 207.747L573.577 211.214L532.205 181.109C532.205 181.109 536.563 174.714 539.179 170.854C541.797 166.994 546.931 157.888 547.21 157.305C547.49 156.723 547.807 155.543 547.807 155.543Z" fill="#775298"/>
<path fill-rule="evenodd" clip-rule="evenodd" d="M85.5393 102.772C85.5393 102.772 82.6136 104.763 84.0758 108.082C85.5393 111.401 91.9533 121.248 100.618 120.915C100.973 120.903 89.7026 102.772 89.7026 102.772H85.5393Z" fill="#FF7B5B"/>
<path fill-rule="evenodd" clip-rule="evenodd" d="M72.2844 284.293C72.2844 284.293 61.4493 274.777 57.9804 276.481C53.7423 278.565 29.4846 301.933 30.4326 312.941C30.822 317.45 36.1606 313.587 45.6735 303.885C55.1892 294.185 67.1704 298.342 67.1704 298.342L72.2844 284.293Z" fill="#775298"/>
<path fill-rule="evenodd" clip-rule="evenodd" d="M98.6093 300.343L85.5291 292.628C85.5291 292.628 51.6241 323.88 56.921 328.047C60.9388 331.207 63.3004 328.372 72.8147 318.67C82.3276 308.971 94.3809 314.548 94.3809 314.548L98.6093 300.343Z" fill="#775298"/>
<path fill-rule="evenodd" clip-rule="evenodd" d="M178.511 197.525L180.964 231.771L126.514 217.824L178.511 197.525Z" fill="#F3A683"/>
<path fill-rule="evenodd" clip-rule="evenodd" d="M126.514 219.002C126.514 219.002 174.143 221.954 180.485 219.873C180.485 219.873 189.793 309.776 173.231 319.475C156.668 329.177 119.5 314.972 119.5 314.972L129.536 295.57L151.173 294.185V259.54L149.62 259.886L126.514 219.002Z" fill="#112129"/>
<path fill-rule="evenodd" clip-rule="evenodd" d="M66.8111 280.326C66.8111 280.326 54.8313 285.177 58.7077 296.957C58.7077 296.957 99.6019 328.485 119.501 321.208C130.649 317.133 142.625 286.035 151.003 259.466L180.485 219.873C180.485 219.873 166.58 220.557 161.942 220.539C153.076 220.507 126.515 219.002 126.515 219.002C126.515 219.002 112.641 290.375 107.697 292.106C102.753 293.837 66.8111 280.326 66.8111 280.326Z" fill="#22343D"/>
<path fill-rule="evenodd" clip-rule="evenodd" d="M137.613 129.486C137.613 129.486 166.158 103.155 171.09 96.2242C176.023 89.2952 186.597 66.0827 199.632 56.382L193.29 43.2162C193.29 43.2162 197.167 41.1382 199.632 46.6801C199.632 46.6801 208.792 28.666 210.907 29.0107C213.024 29.3569 206.68 42.8701 206.68 42.8701C206.68 42.8701 215.492 30.3965 217.958 30.744C220.422 31.0901 211.614 44.7656 211.614 44.7656C211.614 44.7656 221.479 33.5156 222.89 34.9014C224.299 36.2872 215.137 44.7656 215.137 44.7656C215.137 44.7656 225.004 39.1965 226.061 41.0319C227.118 42.8701 216.195 47.7198 216.195 47.7198C216.195 47.7198 215.137 55.6885 208.443 59.1523C208.443 59.1523 195.187 94.3656 183.206 105.798L144.717 145.127L137.613 129.486Z" fill="#FFC6B2"/>
<path fill-rule="evenodd" clip-rule="evenodd" d="M103.54 143.133C103.54 143.133 76.4937 170.95 69.4006 175.734C62.3061 180.517 38.6 190.697 28.6131 203.424L15.282 197.065C15.282 197.065 13.1324 200.856 18.7468 203.332C18.7468 203.332 0.337661 212.171 0.671666 214.255C1.0029 216.337 14.8052 210.227 14.8052 210.227C14.8052 210.227 2.03679 218.773 2.36664 221.2C2.69649 223.627 16.6859 215.094 16.6859 215.094C16.6859 215.094 5.15233 224.688 6.54933 226.086C7.94356 227.486 16.654 218.559 16.654 218.559C16.654 218.559 10.8969 228.207 12.7568 229.263C14.614 230.319 19.649 219.625 19.649 219.625C19.649 219.625 27.7621 218.663 31.3503 212.111C31.3503 212.111 65.2733 198.841 77.0148 187.168L119.23 157.758L103.54 143.133Z" fill="#FFC6B2"/>
<path fill-rule="evenodd" clip-rule="evenodd" d="M113.679 132.046L100 145.212L103.469 160.054C103.469 160.054 116.946 191.865 118.983 199.625C122.15 211.693 117.028 230.092 117.028 230.092C117.028 230.092 139.874 228.227 160.663 227.535C181.45 226.841 188.251 220.257 188.251 220.257C188.251 220.257 170.227 161.235 157.783 144.737C145.338 128.241 140.811 123.076 140.811 123.076L122.488 127.014L113.679 132.046Z" fill="white"/>
<path fill-rule="evenodd" clip-rule="evenodd" d="M153.825 142.791L168.077 133.837C168.077 133.837 170.255 124.244 153.067 112.929L132.911 125.347L153.825 142.791Z" fill="white"/>
<path fill-rule="evenodd" clip-rule="evenodd" d="M102.883 144.171C95.0689 145.249 80.7899 164.72 79.1974 164.683C79.1974 164.683 89.2467 180.807 97.2074 181.33C97.2074 181.33 132.239 140.123 102.883 144.171Z" fill="white"/>
<path fill-rule="evenodd" clip-rule="evenodd" d="M130.465 131.502C130.465 131.502 119.108 123.159 119.501 119.833C119.601 118.995 121.175 117.635 121.584 116.427C123.786 109.932 113.169 93.1944 106.645 89.6665C101.513 86.8922 103.763 86.6469 92.9623 92.9573C82.1618 99.2676 88.3153 110.18 93.1383 115.824C97.6979 121.158 102.92 123.444 107.618 123.829L114.298 138.418L130.465 131.502Z" fill="#FFC6B2"/>
<path fill-rule="evenodd" clip-rule="evenodd" d="M109.971 143.084C107.823 137.903 111.891 131.378 119.057 128.504C126.227 125.629 133.776 127.498 135.928 132.676C138.075 137.856 130.863 145.642 126.837 147.256C122.81 148.871 112.118 148.262 109.971 143.084Z" fill="#FFC6B2"/>
<path fill-rule="evenodd" clip-rule="evenodd" d="M93.1388 115.824C93.1388 115.824 89.455 115.624 89.0462 118.037C88.6359 120.451 95.7983 120.451 98.4593 118.64L93.1388 115.824Z" fill="#FFC6B2"/>
<path fill-rule="evenodd" clip-rule="evenodd" d="M94.9808 118.037C94.2809 113.675 89.5536 110.432 89.7892 106.182C92.0551 106.2 93.5103 103.44 92.4792 101.082C92.0731 100.155 91.3857 99.3619 90.9464 98.4476C90.5085 97.5346 90.392 96.3382 91.0642 95.8218C91.383 95.5779 91.814 95.5356 92.227 95.4948C95.5864 95.1555 101.342 96.1461 104.434 95.0192C107.378 93.9468 110.532 91.8606 110.226 88.315C109.958 85.2273 107.185 82.7241 104.638 80.8328C103.178 79.7481 99.0083 76.9125 97.4353 77.17C95.0335 77.5625 94.4514 80.7129 94.2781 83.3496C92.5984 81.7771 90.1204 82.0292 88.6596 83.3087C87.1989 84.5882 86.5073 86.6213 85.8712 88.5835C85.2337 90.547 84.5587 92.5855 83.1174 93.8896C81.7744 95.105 79.6498 96.0248 79.9284 98.0919C80.2596 100.556 83.5331 101.432 85.0466 103.533C84.6738 103.018 84.3578 106.307 84.5726 106.865C85.2184 108.545 86.8302 109.657 87.9958 110.942C90.478 113.681 91.692 116.438 94.9808 118.037Z" fill="#FF7B5B"/>
<path fill-rule="evenodd" clip-rule="evenodd" d="M115.56 108.063L107.167 112.331C107.167 112.331 117.248 119.526 115.56 108.063Z" fill="white"/>
<path fill-rule="evenodd" clip-rule="evenodd" d="M104.013 109.755C104.472 110.611 103.793 111.848 102.497 112.519C101.201 113.189 99.7789 113.039 99.3202 112.183C98.8628 111.328 99.5405 110.092 100.836 109.42C102.134 108.75 103.554 108.899 104.013 109.755Z" fill="#FFB2A0"/>
<path fill-rule="evenodd" clip-rule="evenodd" d="M116.268 101.524C116.727 102.38 116.048 103.617 114.752 104.288C113.456 104.958 112.034 104.808 111.576 103.952C111.118 103.097 111.796 101.859 113.092 101.189C114.389 100.519 115.81 100.668 116.268 101.524Z" fill="#FFB2A0"/>
<path fill-rule="evenodd" clip-rule="evenodd" d="M109.701 107.761C109.662 107.713 109.818 107.51 110.182 107.252C110.528 106.989 111.131 106.706 111.579 106.232C112.022 105.772 112.181 104.815 111.502 104.68C110.797 104.444 109.996 105.24 109.077 105.996C108.85 106.181 108.625 106.365 108.402 106.546C108.194 106.734 107.756 107.01 107.302 106.954C106.435 106.816 106.067 106.248 105.734 105.868C105.069 105.028 104.659 104.15 104.431 103.389C103.981 101.852 104.183 100.86 104.291 100.868C104.443 100.862 104.492 101.815 105.065 103.167C105.353 103.839 105.784 104.602 106.412 105.323C106.718 105.688 107.103 106.029 107.378 106.04C107.493 106.045 107.583 106.007 107.799 105.828C108.02 105.647 108.241 105.463 108.466 105.278C108.929 104.91 109.329 104.538 109.859 104.192C110.373 103.851 111.106 103.636 111.763 103.855C112.464 104.036 112.876 104.84 112.754 105.399C112.675 105.969 112.387 106.388 112.06 106.695C111.368 107.263 110.75 107.401 110.36 107.573C109.961 107.721 109.742 107.814 109.701 107.761Z" fill="#FF7B5B"/>
<path fill-rule="evenodd" clip-rule="evenodd" d="M107.618 123.829C107.618 123.829 112.972 123.859 115.877 122.1C115.877 122.1 113.42 125.068 108.503 125.836L107.618 123.829Z" fill="#FFA192"/>
<path fill-rule="evenodd" clip-rule="evenodd" d="M109.94 100.223C109.892 100.484 109.143 100.564 108.352 100.907C107.55 101.226 106.97 101.699 106.747 101.552C106.518 101.433 106.897 100.493 107.981 100.045C109.063 99.5938 110.011 99.9781 109.94 100.223Z" fill="#22343D"/>
<path fill-rule="evenodd" clip-rule="evenodd" d="M99.4484 106.99C99.246 106.843 99.5634 105.995 100.334 105.146C101.114 104.28 102.111 103.991 102.216 104.233C102.327 104.469 101.72 105.018 101.037 105.78C100.342 106.539 99.6674 107.151 99.4484 106.99Z" fill="#22343D"/>
<path fill-rule="evenodd" clip-rule="evenodd" d="M95.3813 105.682C94.9475 105.366 94.6093 104.013 96.2696 102.19C97.9452 100.325 99.8176 100.654 100.042 101.172C100.283 101.68 99.6596 102.403 98.1891 104.043C96.6965 105.677 95.8511 106.028 95.3813 105.682Z" fill="#FF7B5B"/>
<path fill-rule="evenodd" clip-rule="evenodd" d="M104.195 98.5002C103.955 98.0587 104.22 96.7737 106.379 95.8784C108.569 94.9532 110.028 95.9738 110.007 96.5039C110.003 97.0312 109.179 97.4005 107.255 98.2154C105.317 99.0152 104.454 98.9812 104.195 98.5002Z" fill="#FF7B5B"/>
<path fill-rule="evenodd" clip-rule="evenodd" d="M564.751 111.282C564.892 111.42 562.567 113.992 557.741 116.794C552.975 119.593 545.476 122.367 536.85 122.43C528.224 122.493 520.683 119.827 515.875 117.098C511.009 114.367 508.645 111.827 508.784 111.687C508.985 111.437 511.629 113.58 516.502 115.925C521.328 118.279 528.601 120.616 536.834 120.558C545.071 120.496 552.307 118.054 557.098 115.63C561.933 113.214 564.547 111.034 564.751 111.282Z" fill="#775298"/>
<path fill-rule="evenodd" clip-rule="evenodd" d="M512.127 107.396C511.995 107.681 509.42 106.63 505.082 105.679C502.92 105.178 500.297 104.791 497.375 104.434C494.442 104.115 491.201 103.861 487.778 103.621C484.353 103.386 481.075 103.115 478.098 102.752C475.121 102.364 472.447 101.902 470.243 101.316C465.819 100.181 463.313 98.8373 463.401 98.6478C463.516 98.3617 466.15 99.246 470.531 100.021C472.717 100.432 475.354 100.749 478.291 101.037C481.235 101.301 484.486 101.518 487.915 101.755C491.346 101.994 494.63 102.304 497.604 102.723C500.577 103.183 503.243 103.717 505.424 104.398C509.805 105.713 512.225 107.217 512.127 107.396Z" fill="#775298"/>
<mask id="mask0" mask-type="alpha" maskUnits="userSpaceOnUse" x="442" y="35" width="174" height="84">
<path fill-rule="evenodd" clip-rule="evenodd" d="M442.565 35.2054H615.356V118.441H442.565V35.2054Z" fill="white"/>
</mask>
<g mask="url(#mask0)">
<path fill-rule="evenodd" clip-rule="evenodd" d="M459.945 52.0647C468.169 50.3491 476.69 51.8262 484.982 53.1848C493.275 54.5433 501.884 55.7683 509.992 53.58C524.63 49.6297 535.742 35.089 550.922 35.2061C557.173 35.2538 563.064 37.8783 569.154 39.2668C576.715 40.9919 584.593 40.8066 592.253 42.037C599.914 43.2675 607.828 46.2967 612.157 52.6316C617.294 60.1492 615.886 70.7533 610.496 78.0979C605.106 85.4439 596.474 89.916 587.631 92.4505C581.462 94.2179 574.89 95.2399 569.552 98.7568C564.152 102.315 560.626 108.04 555.596 112.086C542.971 122.236 523.324 119.327 510.284 109.699C507.008 107.28 503.972 104.473 500.291 102.703C485.319 95.4974 463.786 105.036 450.891 91.9259C437.797 78.6116 439.662 56.2943 459.945 52.0647Z" fill="#775298"/>
</g>
<path fill-rule="evenodd" clip-rule="evenodd" d="M455.836 309.916C455.836 309.916 469.554 338.824 471.159 333.472C472.759 328.117 472.23 315.26 471.371 313.425C470.507 311.589 464.9 303.48 464.9 303.48L455.836 309.916Z" fill="#FFB2A0"/>
<path fill-rule="evenodd" clip-rule="evenodd" d="M555.028 76.1511C556.297 77.7495 555.449 76.0325 556.886 78.3381C562.86 78.1337 566.869 73.1642 566.869 73.1642C566.869 73.1642 576.35 73.4108 576.241 71.7457C576.133 70.0778 567.152 70.7005 567.152 70.7005C567.152 70.7005 576.652 67.7668 576.131 66.3019C575.613 64.8385 564.645 69.5069 564.645 69.5069C564.645 69.5069 575.713 62.7523 574.077 61.669C572.443 60.5884 561.794 66.4845 561.794 66.4845C561.794 66.4845 571.049 59.0105 569.662 58.0471C568.277 57.0837 555.44 66.8116 555.44 66.8116C555.627 62.026 552.135 62.1936 552.135 62.1936L552.28 73.8782C552.28 73.8782 554.443 75.4153 555.028 76.1511Z" fill="#FFC6B2"/>
<path fill-rule="evenodd" clip-rule="evenodd" d="M414.492 23.2669C412.463 23.6349 414.036 22.9413 411.402 23.7316C407.077 19.6764 407.651 13.3033 407.651 13.3033C407.651 13.3033 400.397 7.29956 401.6 6.12633C402.81 4.95037 409.103 11.2785 409.103 11.2785C409.103 11.2785 403.982 2.88189 405.36 2.12699C406.736 1.37208 411.788 12.0225 411.788 12.0225C411.788 12.0225 408.071 -0.253542 410.025 0.00399624C411.976 0.261535 415.959 11.6205 415.959 11.6205C415.959 11.6205 414.085 -0.00826749 415.769 0.175689C417.456 0.358282 420.49 16.0136 420.49 16.0136C423.58 12.3127 426.076 14.7178 426.076 14.7178L418.242 23.1893C418.242 23.1893 415.424 23.0993 414.492 23.2669Z" fill="#FFC6B2"/>
<path fill-rule="evenodd" clip-rule="evenodd" d="M463.702 72.0751C461.078 71.6513 454.735 75.7965 451.561 82.5524C449.784 86.3337 448.562 90.175 450.601 96.3246C451.561 99.2175 453.571 99.5799 454.02 100.876C454.586 102.516 452.708 107.688 452.708 107.688L460.197 110.661C460.683 107.108 461.235 103.534 464.917 101.992C466.295 101.414 467.769 101.049 469.069 100.316C472.577 98.3386 474.451 94.0135 475.892 90.4721C476.968 87.8272 470.279 73.1352 463.702 72.0751Z" fill="#FFC6B2"/>
<path fill-rule="evenodd" clip-rule="evenodd" d="M454.788 172.479L442.243 167.529C442.243 167.529 405.011 235.412 405.167 254.246C405.32 273.079 456.301 310.788 456.301 310.788L464.9 303.481C464.9 303.481 449.16 276.497 440.746 266.983C432.331 257.466 454.788 172.479 454.788 172.479Z" fill="#FFB2A0"/>
<path fill-rule="evenodd" clip-rule="evenodd" d="M517.077 249.807C517.077 249.807 544.727 236.908 539.171 235.769C533.615 234.635 520.621 236.198 518.832 237.19C517.04 238.184 509.276 244.336 509.276 244.336L517.077 249.807Z" fill="#FFC6B2"/>
<path fill-rule="evenodd" clip-rule="evenodd" d="M467.111 171.89L448.079 178.697C448.079 178.697 429.043 261.022 436.31 273.947C443.575 286.877 463.986 278.321 493.054 262.723L517.402 249.655L509.275 244.337C509.275 244.337 480.942 249.796 472.986 255.238C472.986 255.238 477.138 243.671 482.675 227.342C488.21 211.012 492.028 194.343 467.111 171.89Z" fill="#FFC6B2"/>
<path fill-rule="evenodd" clip-rule="evenodd" d="M443.686 115.804C443.686 110.334 445.476 106.379 451.039 106.379C456.603 106.379 464.293 108.296 464.293 113.767C464.293 119.239 459.909 128.122 454.343 128.122C448.78 128.122 443.686 121.276 443.686 115.804Z" fill="#FFC6B2"/>
<path fill-rule="evenodd" clip-rule="evenodd" d="M448.079 105.595C448.079 105.595 430.78 87.1883 427.319 69.1565C423.857 51.1274 417.978 21.8702 417.978 21.8702L411.403 23.7316C411.403 23.7316 408.288 63.7155 411.403 69.8378C414.516 75.9615 429.732 116.729 434.365 127.435L448.079 105.595Z" fill="#FFC6B2"/>
<path fill-rule="evenodd" clip-rule="evenodd" d="M466.664 119.94C466.664 119.94 467.995 114.215 489.87 106.432C511.745 98.6518 553.015 73.4308 553.015 73.4308L557.133 78.0624C557.133 78.0624 534.709 103.529 521.663 107.995C508.617 112.464 480.909 130.076 478.058 131.485C473.746 133.617 473.799 136.3 466.664 119.94Z" fill="#FFC6B2"/>
<path fill-rule="evenodd" clip-rule="evenodd" d="M448.079 105.595C448.079 105.595 430.503 111.195 430.503 137.49C430.503 137.49 430.514 173.503 434.656 180.055C434.656 180.055 441.39 181.751 449.786 180.055C458.59 178.275 467.11 171.89 467.11 171.89L480.936 131.08L479.283 111.96L460.484 108.391C460.484 108.391 465.877 133.168 446.366 122.516C442.574 120.446 451.944 106.389 451.944 106.389L448.079 105.595Z" fill="#22343D"/>
<path fill-rule="evenodd" clip-rule="evenodd" d="M433.207 126.98L424.547 109.24C424.547 109.24 425.789 98.4781 441.688 94.6218C441.688 94.6218 443.296 100.046 445.058 102.119C446.82 104.19 451.951 106.395 451.951 106.395L433.207 126.98Z" fill="#22343D"/>
<path fill-rule="evenodd" clip-rule="evenodd" d="M465.95 134.111L493.489 128.561C493.489 128.561 498.277 118.807 486.924 107.204C486.924 107.204 465.442 108.48 462.662 108.707C459.925 108.931 461.804 111.004 461.804 111.004L465.95 134.111Z" fill="#22343D"/>
<path fill-rule="evenodd" clip-rule="evenodd" d="M434.612 171.283C434.612 171.283 408.564 218.633 404.261 227.094C404.261 227.094 481.108 261.801 512.304 220.024C512.304 220.024 494.559 183.097 467.126 169.039L455.291 165.554L435.075 171.055" fill="#22343D"/>
<path fill-rule="evenodd" clip-rule="evenodd" d="M474.884 90.0244C474.884 90.0244 477.851 87.107 479.676 89.1264C481.501 91.1458 473.058 94.0632 473.058 94.0632L474.884 90.0244Z" fill="#FFC6B2"/>
<path fill-rule="evenodd" clip-rule="evenodd" d="M529.158 50.2356C529.188 50.3365 528.041 50.8243 525.853 51.3353C523.67 51.8517 520.431 52.3205 516.408 52.4009C512.387 52.4799 507.606 52.1283 502.373 51.4307C497.135 50.748 491.446 49.7451 485.461 49.1033C479.484 48.4751 473.738 48.3607 468.649 49.1687C463.559 49.9631 459.153 51.6024 455.785 53.5169C452.418 55.4464 450.074 57.5871 448.635 59.2072C447.189 60.8288 446.537 61.8644 446.39 61.7772C446.31 61.7363 446.745 60.5699 448.056 58.7521C449.359 56.9398 451.658 54.5484 455.087 52.3859C458.513 50.237 463.067 48.3906 468.358 47.4668C473.657 46.5293 479.583 46.6015 485.663 47.2419C491.748 47.8946 497.445 48.9548 502.621 49.7233C507.796 50.5068 512.473 50.9865 516.412 51.0764C524.308 51.293 529.086 49.9154 529.158 50.2356Z" fill="#775298"/>
<path fill-rule="evenodd" clip-rule="evenodd" d="M459.773 88.3682C459.765 88.4827 458.92 88.5631 457.629 88.142C457.31 88.0317 456.934 87.8872 456.583 87.5711C456.41 87.413 456.249 87.2032 456.15 86.9511C456.009 86.5982 456.02 86.1976 456.16 85.8923C456.202 85.831 456.199 85.6852 456.281 85.6825L456.532 85.6743C456.692 85.6525 456.882 85.7043 457.068 85.7383C457.409 85.8024 457.518 85.7929 457.761 85.8092C458.186 85.8187 458.627 85.7751 459.068 85.6798C460.87 85.3064 462.075 84.0173 462.616 82.9572C463.183 81.8903 463.233 81.0877 463.384 81.0972C463.49 81.0836 463.701 81.9366 463.233 83.2243C462.994 83.8552 462.58 84.5787 461.91 85.2137C461.245 85.8474 460.323 86.3679 459.277 86.5927C458.755 86.7072 458.229 86.7508 457.723 86.7249C457.503 86.714 457.157 86.6704 457.055 86.6486C456.963 86.6336 456.974 86.6132 456.956 86.6241C456.945 86.635 456.939 86.6527 456.94 86.6786C456.978 86.8012 457.046 86.9184 457.141 87.0233C457.334 87.2373 457.614 87.3967 457.887 87.5302C459.003 88.0685 459.794 88.2279 459.773 88.3682Z" fill="#FF7B5B"/>
<path fill-rule="evenodd" clip-rule="evenodd" d="M453.596 88.6836L463.74 92.6134C463.74 92.6134 454.825 98.6581 453.596 88.6836Z" fill="white"/>
<path fill-rule="evenodd" clip-rule="evenodd" d="M468.073 90.5746C467.712 91.2477 466.595 91.3649 465.577 90.8376C464.558 90.3116 464.024 89.3387 464.383 88.6669C464.744 87.9937 465.862 87.8752 466.881 88.4025C467.899 88.9299 468.433 89.9014 468.073 90.5746Z" fill="#FFB2A0"/>
<path fill-rule="evenodd" clip-rule="evenodd" d="M456.75 84.6721C456.443 85.3698 455.338 85.5715 454.282 85.1218C453.226 84.6721 452.618 83.7428 452.925 83.0452C453.232 82.3475 454.338 82.1458 455.394 82.5955C456.45 83.0452 457.058 83.9745 456.75 84.6721Z" fill="#FFB2A0"/>
<path fill-rule="evenodd" clip-rule="evenodd" d="M452.993 99.6227C452.993 99.6227 456.549 102.551 460.259 101.608C460.259 101.608 458.98 103.494 454.056 102.802C454.056 102.802 454.464 100.724 452.993 99.6227Z" fill="#FFA192"/>
<path fill-rule="evenodd" clip-rule="evenodd" d="M467.099 84.3102C467.099 84.7463 466.739 85.1006 466.296 85.1006C465.852 85.1006 465.492 84.7463 465.492 84.3102C465.492 83.8742 465.852 83.5199 466.296 83.5199C466.739 83.5199 467.099 83.8742 467.099 84.3102Z" fill="#22343D"/>
<path fill-rule="evenodd" clip-rule="evenodd" d="M460.522 81.9809C460.522 82.4169 460.161 82.7712 459.718 82.7712C459.274 82.7712 458.915 82.4169 458.915 81.9809C458.915 81.5448 459.274 81.1906 459.718 81.1906C460.161 81.1906 460.522 81.5448 460.522 81.9809Z" fill="#22343D"/>
<path fill-rule="evenodd" clip-rule="evenodd" d="M469.682 82.2051C469.434 82.3086 468.954 81.7377 468.228 81.2757C467.517 80.7934 466.796 80.5767 466.798 80.3124C466.774 80.0589 467.78 79.8532 468.757 80.4977C469.736 81.1381 469.93 82.1288 469.682 82.2051Z" fill="#775298"/>
<path fill-rule="evenodd" clip-rule="evenodd" d="M458.09 78.3707C458.073 78.124 458.937 77.8134 460.092 77.8433C461.269 77.8679 462.138 78.4293 462.018 78.6636C461.907 78.9007 461.088 78.7986 460.055 78.7795C459.017 78.7495 458.106 78.6391 458.09 78.3707Z" fill="#775298"/>
<path fill-rule="evenodd" clip-rule="evenodd" d="M461.712 321.662C461.712 321.662 465.932 336.389 470.289 335.183C474.647 333.979 471.37 313.425 471.37 313.425L467.023 306.669C467.023 306.669 471.107 341.074 461.712 321.662Z" fill="#22343D"/>
<path fill-rule="evenodd" clip-rule="evenodd" d="M514.926 240.014C514.926 240.014 517.995 236.722 521.714 236.174C525.436 235.625 538.734 234.07 540.686 235.808C542.64 237.545 529.908 243.37 529.908 243.37C529.908 243.37 534.344 240.591 532.502 239.558C529.247 237.728 514.926 240.014 514.926 240.014Z" fill="#22343D"/>
<path fill-rule="evenodd" clip-rule="evenodd" d="M509.65 243.957L513.813 252.268L516.085 251.028L510.533 242.841L509.65 243.957Z" fill="#22343D"/>
<path fill-rule="evenodd" clip-rule="evenodd" d="M463.095 300.149L452.875 309.205L455.904 311.686L464.483 302.506L463.095 300.149Z" fill="#22343D"/>
<path fill-rule="evenodd" clip-rule="evenodd" d="M249.437 209.993C246.53 202.902 245.413 195.007 241.077 188.661C234.836 179.53 222.849 174.999 217.785 165.188C215.634 161.021 214.959 156.255 214.937 151.582C214.895 142.338 217.71 132.511 224.972 126.636C233.317 119.886 245.837 119.98 255.611 124.515C265.381 129.05 272.847 137.281 279.195 145.88C285.544 154.476 291.101 163.703 298.494 171.451C303.975 177.196 310.476 182.15 314.605 188.899C325.924 207.403 314.278 230.814 294.296 237.492C276.738 243.359 255.511 224.819 249.437 209.993Z" fill="#22343D"/>
<path fill-rule="evenodd" clip-rule="evenodd" d="M224.423 340.493C226.161 341.898 224.265 340.925 226.793 342.544C226.229 348.753 220.387 352.665 220.387 352.665C220.387 352.665 220.14 362.551 218.264 362.348C216.383 362.148 217.588 352.829 217.588 352.829C217.588 352.829 213.742 362.566 212.115 361.946C210.489 361.329 216.376 350.155 216.376 350.155C216.376 350.155 208.125 361.322 206.991 359.562C205.859 357.802 213.119 347.027 213.119 347.027C213.119 347.027 204.154 356.268 203.141 354.772C202.129 353.28 213.84 340.427 213.84 340.427C208.42 340.369 208.804 336.741 208.804 336.741L222.006 337.511C222.006 337.511 223.623 339.844 224.423 340.493Z" fill="#FFC6B2"/>
<path fill-rule="evenodd" clip-rule="evenodd" d="M350.547 154.045C352.806 154.435 351.053 153.699 353.984 154.537C358.799 150.236 358.16 143.479 358.16 143.479C358.16 143.479 366.235 137.113 364.896 135.869C363.549 134.622 356.544 141.33 356.544 141.33C356.544 141.33 362.243 132.428 360.71 131.627C359.18 130.827 353.558 142.121 353.558 142.121C353.558 142.121 357.695 129.103 355.519 129.376C353.348 129.65 348.915 141.694 348.915 141.694C348.915 141.694 350.999 129.364 349.124 129.558C347.248 129.752 344.212 145.906 344.212 145.906C339.791 142.369 336.697 144.633 336.697 144.633L346.373 153.962C346.373 153.962 349.509 153.868 350.547 154.045Z" fill="#FFC6B2"/>
<path fill-rule="evenodd" clip-rule="evenodd" d="M295.277 208.035C299.361 207.409 311.817 215.345 308.647 231.461C308.382 232.814 306.585 235.792 306.137 237.024C305.572 238.584 309.978 244.295 309.978 244.295L298.603 247.868C298.118 244.49 298.935 239.553 295.259 238.086C293.884 237.537 292.412 237.189 291.115 236.493C287.613 234.612 285.743 230.498 284.305 227.131C283.231 224.615 282.413 221.908 282.444 219.178C282.518 212.302 288.712 209.044 295.277 208.035Z" fill="#FFC6B2"/>
<path fill-rule="evenodd" clip-rule="evenodd" d="M318.054 252.173C318.054 246.372 316.183 244.158 309.991 244.158C303.799 244.158 295.625 246.372 295.625 252.173C295.625 257.975 299.997 265.235 306.192 265.235C312.383 265.235 318.054 257.975 318.054 252.173Z" fill="#FFC6B2"/>
<path fill-rule="evenodd" clip-rule="evenodd" d="M313.164 241.346C313.164 241.346 332.419 221.828 336.27 202.707C340.123 183.588 346.667 152.564 346.667 152.564L353.985 154.537C353.985 154.537 357.452 196.937 353.985 203.429C350.52 209.924 330.877 255.018 331.263 266.56L313.164 241.346Z" fill="#FFC6B2"/>
<path fill-rule="evenodd" clip-rule="evenodd" d="M278.842 250.797C278.842 250.797 272.295 251.879 262.281 274.247C252.268 296.613 221.459 338.252 221.459 338.252L226.467 342.786C226.467 342.786 256.505 320.782 262.281 307.435C268.057 294.088 275.374 277.494 278.842 278.213C282.307 278.937 296.942 259.093 278.842 250.797Z" fill="#FFC6B2"/>
<path fill-rule="evenodd" clip-rule="evenodd" d="M330.391 269.542L339.356 245.213C339.356 245.213 337.973 233.802 320.278 229.711L310.253 243.911L330.391 269.542Z" fill="#FF7B5B"/>
<path fill-rule="evenodd" clip-rule="evenodd" d="M281.831 248.93C281.831 248.93 271.253 249.806 262.68 268.32C262.68 268.32 272.109 281.118 279.006 281.55C279.006 281.55 304.625 260.02 281.831 248.93Z" fill="#FF7B5B"/>
<path fill-rule="evenodd" clip-rule="evenodd" d="M310.893 468.488C310.893 468.488 295.624 499.143 293.839 493.467C292.057 487.789 292.646 474.155 293.602 472.209C294.563 470.262 300.805 461.663 300.805 461.663L310.893 468.488Z" fill="#FFC6B2"/>
<path fill-rule="evenodd" clip-rule="evenodd" d="M312.06 322.747L326.023 317.498C326.023 317.498 367.462 389.483 367.29 409.455C367.118 429.425 310.376 469.413 310.376 469.413L300.805 461.663C300.805 461.663 327.7 422.785 337.064 412.696C341.747 407.65 308.222 382.923 303.144 359.132C298.066 335.34 312.06 322.747 312.06 322.747Z" fill="#654287"/>
<path fill-rule="evenodd" clip-rule="evenodd" d="M228.106 452.429C228.106 452.429 199.545 473.127 200.733 467.318C201.925 461.504 209.115 449.638 210.918 448.318C212.724 447 222.475 442.034 222.475 442.034L228.106 452.429Z" fill="#FFC6B2"/>
<path fill-rule="evenodd" clip-rule="evenodd" d="M274.07 348.237L315.382 324.698C315.382 324.698 317.021 406.467 307.104 424.147C297.187 441.827 227.195 453.028 227.195 453.028L222.475 442.035C222.475 442.035 265.658 416.739 278.915 411.788C292.174 406.835 274.07 348.237 274.07 348.237Z" fill="#775298"/>
<path fill-rule="evenodd" clip-rule="evenodd" d="M298.674 308.596C298.674 308.596 268.256 319.185 274.071 348.238C279.885 377.289 289.577 382.736 289.577 382.736L307.021 354.593L324.535 317.738L307.021 315.553L298.674 308.596Z" fill="#775298"/>
<path fill-rule="evenodd" clip-rule="evenodd" d="M313.164 241.346C313.164 241.346 335.559 253.686 335.559 281.57C335.559 281.57 332.714 313.359 328.103 320.304C328.103 320.304 320.608 322.104 311.263 320.304C301.464 318.418 291.982 311.647 291.982 311.647L284.329 272.728L278.375 250.003L281.603 248.957L298.446 247.137C298.446 247.137 296.026 271.875 314.833 259.591C318.794 257.003 309.902 244.104 309.902 244.104L313.164 241.346Z" fill="#FF7B5B"/>
<path fill-rule="evenodd" clip-rule="evenodd" d="M326.872 135.978L373.826 162.909L400.239 113.857L356.218 89.8119L326.872 135.978Z" fill="white"/>
<path fill-rule="evenodd" clip-rule="evenodd" d="M392.194 370.786L425.776 350.347L398.031 302.732L367.333 322.303L392.194 370.786Z" fill="white"/>
<path fill-rule="evenodd" clip-rule="evenodd" d="M226.846 167.89C226.934 167.813 227.971 168.738 229.611 170.625C231.243 172.515 233.47 175.389 235.706 179.267C237.95 183.129 240.17 188.029 241.755 193.716C243.396 199.362 244.497 205.708 247.019 211.82C248.329 214.84 249.916 217.651 251.805 220.136C253.71 222.606 255.824 224.772 258 226.662C262.446 230.341 267.104 232.872 271.255 234.334C275.401 235.816 278.953 236.481 281.423 236.72C283.89 236.988 285.284 237.028 285.286 237.187C285.292 237.287 283.902 237.495 281.369 237.447C278.837 237.428 275.152 236.953 270.811 235.585C266.468 234.236 261.56 231.739 256.867 227.98C254.565 226.048 252.328 223.81 250.313 221.239C248.315 218.653 246.627 215.696 245.256 212.53C242.628 206.141 241.59 199.739 240.062 194.169C238.602 188.579 236.573 183.769 234.522 179.899C232.484 176.018 230.46 173.076 229.026 171.071C227.583 169.069 226.738 167.984 226.846 167.89Z" fill="#22343D"/>
<path fill-rule="evenodd" clip-rule="evenodd" d="M284.534 136.383C284.879 136.331 285.215 140.875 287.801 147.597C289.092 150.945 291.013 154.797 293.773 158.659C295.152 160.592 296.739 162.497 298.535 164.396C300.318 166.302 302.261 168.238 304.098 170.41C307.78 174.794 310.314 179.532 312.699 183.714C315.067 187.937 316.954 191.954 317.913 195.547C318.913 199.129 318.971 202.213 318.654 204.258C318.323 206.313 317.803 207.354 317.717 207.326C317.552 207.283 317.821 206.184 317.915 204.193C317.997 202.205 317.739 199.308 316.621 195.922C315.54 192.522 313.595 188.69 311.169 184.557C308.705 180.426 306.149 175.783 302.631 171.605C300.866 169.515 298.951 167.586 297.156 165.632C295.351 163.687 293.71 161.662 292.326 159.636C289.548 155.579 287.694 151.536 286.533 148.041C285.345 144.547 284.839 141.599 284.599 139.567C284.362 137.531 284.426 136.392 284.534 136.383Z" fill="#22343D"/>
<path fill-rule="evenodd" clip-rule="evenodd" d="M298.929 225.553C298.911 225.422 299.676 225.302 300.398 224.468C300.565 224.276 300.732 223.995 300.73 223.832C300.726 223.656 300.601 223.351 300.386 223.175C300.163 222.979 299.915 222.883 299.588 222.916C299.25 222.941 298.838 223.105 298.3 223.184C297.122 223.338 296.203 222.684 295.599 222.154C294.978 221.597 294.504 221.032 294.151 220.525C293.447 219.504 293.228 218.767 293.336 218.712C293.461 218.647 293.885 219.257 294.679 220.113C295.075 220.538 295.575 221.026 296.166 221.496C296.748 221.953 297.46 222.368 298.171 222.258C298.548 222.21 298.988 222.037 299.523 222.002C300.067 221.949 300.673 222.195 301.005 222.563C301.359 222.939 301.557 223.382 301.515 223.907C301.41 224.444 301.12 224.694 300.881 224.929C299.845 225.82 298.896 225.674 298.929 225.553Z" fill="#FF7B5B"/>
<path fill-rule="evenodd" clip-rule="evenodd" d="M304.479 226.321L295.46 229.545C295.46 229.545 303.112 236.126 304.479 226.321Z" fill="white"/>
<path fill-rule="evenodd" clip-rule="evenodd" d="M294.561 225.772C294.921 226.445 294.387 227.418 293.369 227.944C292.35 228.471 291.233 228.354 290.873 227.681C290.512 227.009 291.046 226.036 292.065 225.509C293.083 224.981 294.2 225.099 294.561 225.772Z" fill="#FFB2A0"/>
<path fill-rule="evenodd" clip-rule="evenodd" d="M305.251 220.382C305.546 221.085 304.923 222.003 303.86 222.435C302.795 222.869 301.694 222.649 301.398 221.946C301.103 221.243 301.727 220.324 302.791 219.893C303.854 219.461 304.956 219.679 305.251 220.382Z" fill="#FFB2A0"/>
<path fill-rule="evenodd" clip-rule="evenodd" d="M295.727 238.321C295.727 238.321 298.744 238.925 302.59 237.981C302.59 237.981 300.694 239.792 297.597 240.213C297.597 240.213 296.903 238.951 295.727 238.321Z" fill="#FFA192"/>
<path fill-rule="evenodd" clip-rule="evenodd" d="M298.81 218.391C299.148 218.673 299.189 219.172 298.903 219.504C298.616 219.837 298.11 219.878 297.77 219.596C297.432 219.315 297.39 218.816 297.677 218.482C297.964 218.15 298.471 218.109 298.81 218.391Z" fill="#22343D"/>
<path fill-rule="evenodd" clip-rule="evenodd" d="M292.75 221.819C293.088 222.101 293.129 222.6 292.843 222.932C292.557 223.265 292.05 223.306 291.71 223.024C291.372 222.741 291.331 222.244 291.617 221.91C291.904 221.578 292.412 221.537 292.75 221.819Z" fill="#22343D"/>
<path fill-rule="evenodd" clip-rule="evenodd" d="M298.845 215.093C298.765 215.346 298.013 215.337 297.185 215.583C296.351 215.804 295.717 216.205 295.512 216.032C295.3 215.887 295.791 214.999 296.923 214.683C298.053 214.362 298.947 214.858 298.845 215.093Z" fill="#22343D"/>
<path fill-rule="evenodd" clip-rule="evenodd" d="M288.377 221.309C288.174 221.162 288.492 220.315 289.262 219.467C290.041 218.6 291.039 218.312 291.143 218.553C291.255 218.788 290.647 219.338 289.964 220.099C289.271 220.858 288.596 221.471 288.377 221.309Z" fill="#22343D"/>
<path fill-rule="evenodd" clip-rule="evenodd" d="M284.975 227.893C284.975 227.893 282.083 225.504 280.694 227.665C279.307 229.826 286.942 230.964 286.942 230.964L284.975 227.893Z" fill="#FFC6B2"/>
<path fill-rule="evenodd" clip-rule="evenodd" d="M215.428 445.702C215.428 445.702 211.281 447.475 210.2 448.539C209.118 449.602 199.202 466.441 200.464 468.568C201.727 470.696 211.671 463.475 211.671 463.475C211.671 463.475 203.35 465.024 215.428 445.702Z" fill="#775298"/>
<path fill-rule="evenodd" clip-rule="evenodd" d="M296.344 467.97C296.344 467.97 293.399 471.1 292.945 472.537C292.49 473.972 291.677 493.414 293.801 494.72C295.924 496.027 301.729 485.299 301.729 485.299C301.729 485.299 294.789 490.643 296.344 468.015" fill="#775298"/>
</svg>
